C:\Users\r0593348\3dpredictsim\Results\batch_windlass\Pog_s1_tmt_bCst_d05_k1500_WL30_ig24_act_TTC_GRF.mot
nRows=12
nColumns=19

name C:\Users\r0593348\3dpredictsim\Results\batch_windlass\Pog_s1_tmt_bCst_d05_k1500_WL30_ig24_act_TTC_GRF.mot
datacolumns 19
datarows 12
range 0.0000000000 0.1280940362
endheader
time 	ground_force_vx	ground_force_vy	ground_force_vz	ground_force_px	ground_force_py	ground_force_pz	1_ground_force_vx	1_ground_force_vy	1_ground_force_vz	1_ground_force_px	1_ground_force_py	1_ground_force_pz	ground_torque_x	ground_torque_y	ground_torque_z	1_ground_torque_x	1_ground_torque_y	1_ground_torque_z
        0.0000000000	      -47.3883975408	       31.0572983459	        7.4081840705	        0.1452822139	        0.0000000000	        0.0587329716	       86.2561364450	      390.6174390124	       -2.5786301790	       -0.3502153630	        0.0000000000	       -0.0338425758	        0.0000000000	        0.0000000000	        0.0000000000	        0.0000000000	        0.0000000000	        0.0000000000	
        0.0116449124	      -92.5628687823	       71.4872327777	       17.9979637891	        0.1604328500	        0.0000000000	        0.0568299368	       53.9951205359	      289.2740703026	       -5.5795097474	       -0.3415521073	        0.0000000000	       -0.0297041081	        0.0000000000	        0.0000000000	        0.0000000000	        0.0000000000	        0.0000000000	        0.0000000000	
        0.0232898248	     -164.6457096533	      168.1918717670	       45.5452043149	        0.1720463647	        0.0000000000	        0.0561141142	       31.5684930887	      205.6611717909	      -15.4935429702	       -0.3310601585	        0.0000000000	       -0.0244604365	        0.0000000000	        0.0000000000	        0.0000000000	        0.0000000000	        0.0000000000	        0.0000000000	
        0.0349347372	      -92.0507023200	      431.7758379327	        7.3117463207	        0.1889308102	        0.0000000000	        0.0573419521	       22.4319262119	      161.5745282455	      -15.7642336503	       -0.3296003450	        0.0000000000	       -0.0236118860	        0.0000000000	        0.0000000000	        0.0000000000	        0.0000000000	        0.0000000000	        0.0000000000	
        0.0465796495	      -98.6260092142	      728.5517161161	      -18.1184313372	        0.1979948819	        0.0000000000	        0.0587890674	       14.5467346277	      106.3842400006	      -13.3451817963	       -0.3293890903	        0.0000000000	       -0.0236522901	        0.0000000000	        0.0000000000	        0.0000000000	        0.0000000000	        0.0000000000	        0.0000000000	
        0.0582245619	     -125.1939862178	      900.4250026763	      -27.7883135857	        0.2050104534	        0.0000000000	        0.0593014406	       -1.5559201588	       43.3823457444	       -8.5916831185	       -0.3303920251	        0.0000000000	       -0.0238892556	        0.0000000000	        0.0000000000	        0.0000000000	        0.0000000000	        0.0000000000	        0.0000000000	
        0.0698694743	     -148.9919123644	      967.8917004500	      -28.3628851921	        0.2141747505	        0.0000000000	        0.0588345357	       -0.3820893471	        0.3926250152	        0.0039104377	        0.0000000000	        0.0000000000	        0.0000000000	        0.0000000000	        0.0000000000	        0.0000000000	        0.0000000000	        0.0000000000	        0.0000000000	
        0.0815143867	     -140.7629889291	      941.3477999981	      -26.3141979667	        0.2224535675	        0.0000000000	        0.0580462243	       -0.2371744464	        0.2068907003	        0.0218216498	        0.0000000000	        0.0000000000	        0.0000000000	        0.0000000000	        0.0000000000	        0.0000000000	        0.0000000000	        0.0000000000	        0.0000000000	
        0.0931592991	     -124.5021025269	      863.0937496678	      -22.8250621652	        0.2278145799	        0.0000000000	        0.0573662269	        0.0217208140	       -0.0166939502	       -0.0020020677	        0.0000000000	        0.0000000000	        0.0000000000	        0.0000000000	        0.0000000000	        0.0000000000	        0.0000000000	        0.0000000000	        0.0000000000	
        0.1048042115	     -107.0113849521	      795.7280620308	      -20.5830259184	        0.2315916537	        0.0000000000	        0.0569474909	        0.1459204273	       -0.1020164083	       -0.0123731882	        0.0000000000	        0.0000000000	        0.0000000000	        0.0000000000	        0.0000000000	        0.0000000000	        0.0000000000	        0.0000000000	        0.0000000000	
        0.1164491238	      -92.6092441944	      748.7229103915	      -19.9991178151	        0.2349627987	        0.0000000000	        0.0566668006	        0.0318925588	       -0.0207664754	       -0.0024246344	        0.0000000000	        0.0000000000	        0.0000000000	        0.0000000000	        0.0000000000	        0.0000000000	        0.0000000000	        0.0000000000	        0.0000000000	
        0.1280940362	      -80.2202663621	      716.0839256739	      -20.6192055106	        0.2379885811	        0.0000000000	        0.0564668372	       -0.1025911646	        0.0634051987	        0.0069061646	        0.0000000000	        0.0000000000	        0.0000000000	        0.0000000000	        0.0000000000	        0.0000000000	        0.0000000000	        0.0000000000	        0.0000000000	
